{
    "asset": {
        "generator": "FBX2glTF v0.13.1",
        "version": "2.0"
    },
    "scene": 0,
    "buffers": [
        {
            "byteLength": 52360,
            "uri": "wall_doorway.bin"
        }
    ],
    "bufferViews": [
        {
            "buffer": 0,
            "byteLength": 2688,
            "byteOffset": 0,
            "target": 34963
        },
        {
            "buffer": 0,
            "byteLength": 9576,
            "byteOffset": 2688,
            "target": 34962
        },
        {
            "buffer": 0,
            "byteLength": 9576,
            "byteOffset": 12264,
            "target": 34962
        },
        {
            "buffer": 0,
            "byteLength": 6384,
            "byteOffset": 21840,
            "target": 34962
        },
        {
            "buffer": 0,
            "byteLength": 3720,
            "byteOffset": 28224,
            "target": 34963
        },
        {
            "buffer": 0,
            "byteLength": 7656,
            "byteOffset": 31944,
            "target": 34962
        },
        {
            "buffer": 0,
            "byteLength": 7656,
            "byteOffset": 39600,
            "target": 34962
        },
        {
            "buffer": 0,
            "byteLength": 5104,
            "byteOffset": 47256,
            "target": 34962
        }
    ],
    "scenes": [
        {
            "name": "Root Scene",
            "nodes": [
                0
            ]
        }
    ],
    "accessors": [
        {
            "componentType": 5123,
            "type": "SCALAR",
            "count": 1344,
            "bufferView": 0,
            "byteOffset": 0
        },
        {
            "componentType": 5126,
            "type": "VEC3",
            "count": 798,
            "bufferView": 1,
            "byteOffset": 0,
            "min": [
                -0.0199999995529652,
                -0.00499999942258,
                0.0
            ],
            "max": [
                0.0199999995529652,
                0.00499999942258,
                0.0399999991059303
            ]
        },
        {
            "componentType": 5126,
            "type": "VEC3",
            "count": 798,
            "bufferView": 2,
            "byteOffset": 0
        },
        {
            "componentType": 5126,
            "type": "VEC2",
            "count": 798,
            "bufferView": 3,
            "byteOffset": 0
        },
        {
            "componentType": 5123,
            "type": "SCALAR",
            "count": 1860,
            "bufferView": 4,
            "byteOffset": 0
        },
        {
            "componentType": 5126,
            "type": "VEC3",
            "count": 638,
            "bufferView": 5,
            "byteOffset": 0,
            "min": [
                -0.00179901113733649,
                -0.00386773096397519,
                0.0
            ],
            "max": [
                0.0182009879499674,
                0.00386773096397519,
                0.0274999998509884
            ]
        },
        {
            "componentType": 5126,
            "type": "VEC3",
            "count": 638,
            "bufferView": 6,
            "byteOffset": 0
        },
        {
            "componentType": 5126,
            "type": "VEC2",
            "count": 638,
            "bufferView": 7,
            "byteOffset": 0
        }
    ],
    "images": [
        {
            "name": "dungeon_texture.png",
            "uri": "dungeon_texture.png"
        }
    ],
    "samplers": [
        {}
    ],
    "textures": [
        {
            "name": "base_color_texture",
            "sampler": 0,
            "source": 0
        }
    ],
    "materials": [
        {
            "name": "texture",
            "alphaMode": "OPAQUE",
            "doubleSided": false,
            "extras": {
                "fromFBX": {
                    "shadingModel": "Phong",
                    "isTruePBR": false
                }
            },
            "pbrMetallicRoughness": {
                "baseColorTexture": {
                    "index": 0,
                    "texCoord": 0
                },
                "baseColorFactor": [
                    1.0,
                    1.0,
                    1.0,
                    1.0
                ],
                "metallicFactor": 0.400000005960464,
                "roughnessFactor": 0.249029114842415
            }
        }
    ],
    "meshes": [
        {
            "name": "wall_doorway",
            "primitives": [
                {
                    "material": 0,
                    "mode": 4,
                    "attributes": {
                        "NORMAL": 2,
                        "POSITION": 1,
                        "TEXCOORD_0": 3
                    },
                    "indices": 0
                }
            ]
        },
        {
            "name": "wall_doorway_door",
            "primitives": [
                {
                    "material": 0,
                    "mode": 4,
                    "attributes": {
                        "NORMAL": 6,
                        "POSITION": 5,
                        "TEXCOORD_0": 7
                    },
                    "indices": 4
                }
            ]
        }
    ],
    "nodes": [
        {
            "name": "RootNode",
            "translation": [
                0.0,
                0.0,
                0.0
            ],
            "rotation": [
                0.0,
                0.0,
                0.0,
                1.0
            ],
            "scale": [
                1.0,
                1.0,
                1.0
            ],
            "children": [
                1
            ]
        },
        {
            "name": "wall_doorway",
            "translation": [
                0.0,
                0.0,
                0.0
            ],
            "rotation": [
                -0.707106828689575,
                0.0,
                0.0,
                0.707106709480286
            ],
            "scale": [
                100.0,
                100.0,
                100.0
            ],
            "children": [
                2
            ],
            "mesh": 0
        },
        {
            "name": "wall_doorway_door",
            "translation": [
                -0.0082009881734848,
                -0.0,
                0.0
            ],
            "rotation": [
                -1.32348898008484e-23,
                -0.0,
                0.0,
                1.0
            ],
            "scale": [
                1.0,
                1.0,
                1.0
            ],
            "mesh": 1
        }
    ]
}